<?xml version="1.0" encoding="UTF-8" standalone="no"?>
<!-- Created with Inkscape (http://www.inkscape.org/) -->

<svg
   xmlns:dc="http://purl.org/dc/elements/1.1/"
   xmlns:cc="http://creativecommons.org/ns#"
   xmlns:rdf="http://www.w3.org/1999/02/22-rdf-syntax-ns#"
   xmlns:svg="http://www.w3.org/2000/svg"
   xmlns="http://www.w3.org/2000/svg"
   xmlns:xlink="http://www.w3.org/1999/xlink"
   xmlns:sodipodi="http://sodipodi.sourceforge.net/DTD/sodipodi-0.dtd"
   xmlns:inkscape="http://www.inkscape.org/namespaces/inkscape"
   width="256"
   height="256"
   id="svg2"
   version="1.1"
   inkscape:version="0.48.2 r9819"
   sodipodi:docname="icon.svg"
   inkscape:export-filename="C:\Development\Kunden\69 Grad\Testing\SpecificationTextToTestConverter\SpecificationTextToTestConverter\Graphics\icon.png"
   inkscape:export-xdpi="90"
   inkscape:export-ydpi="90">
  <defs
     id="defs4">
    <linearGradient
       id="linearGradient3902">
      <stop
         style="stop-color:#ffffff;stop-opacity:1;"
         offset="0"
         id="stop3904" />
      <stop
         style="stop-color:#f0f0f0;stop-opacity:1;"
         offset="1"
         id="stop3906" />
    </linearGradient>
    <linearGradient
       id="linearGradient3757">
      <stop
         style="stop-color:#d4002c;stop-opacity:1;"
         offset="0"
         id="stop3759" />
      <stop
         style="stop-color:#8f0523;stop-opacity:1;"
         offset="1"
         id="stop3761" />
    </linearGradient>
    <linearGradient
       inkscape:collect="always"
       xlink:href="#linearGradient3757"
       id="linearGradient3763"
       x1="258.38568"
       y1="480.84665"
       x2="258.38568"
       y2="508.27884"
       gradientUnits="userSpaceOnUse" />
    <linearGradient
       inkscape:collect="always"
       xlink:href="#linearGradient3757"
       id="linearGradient3769"
       gradientUnits="userSpaceOnUse"
       x1="258.38568"
       y1="480.84665"
       x2="258.38568"
       y2="508.27884" />
    <linearGradient
       inkscape:collect="always"
       xlink:href="#linearGradient3757"
       id="linearGradient3827"
       gradientUnits="userSpaceOnUse"
       x1="258.38568"
       y1="480.84665"
       x2="258.38568"
       y2="508.27884" />
    <linearGradient
       inkscape:collect="always"
       xlink:href="#linearGradient3757"
       id="linearGradient3843"
       gradientUnits="userSpaceOnUse"
       x1="258.38568"
       y1="480.84665"
       x2="258.38568"
       y2="508.27884" />
    <linearGradient
       inkscape:collect="always"
       xlink:href="#linearGradient3757"
       id="linearGradient3848"
       gradientUnits="userSpaceOnUse"
       x1="258.38568"
       y1="480.84665"
       x2="258.38568"
       y2="508.27884"
       gradientTransform="matrix(8.6642202,0,0,8.6642202,-2108.2034,-3360.5603)" />
    <linearGradient
       inkscape:collect="always"
       xlink:href="#linearGradient3757"
       id="linearGradient3874"
       gradientUnits="userSpaceOnUse"
       gradientTransform="matrix(8.6642202,0,0,8.6642202,-2108.2034,-4156.9224)"
       x1="258.38568"
       y1="480.84665"
       x2="258.38568"
       y2="508.27884" />
    <filter
       inkscape:collect="always"
       id="filter3891">
      <feGaussianBlur
         inkscape:collect="always"
         stdDeviation="3.0880424"
         id="feGaussianBlur3893" />
    </filter>
    <linearGradient
       inkscape:collect="always"
       xlink:href="#linearGradient3757"
       id="linearGradient3009"
       gradientUnits="userSpaceOnUse"
       gradientTransform="matrix(8.6642202,0,0,8.6642202,-2108.2034,-3360.5603)"
       x1="258.38568"
       y1="480.84665"
       x2="258.38568"
       y2="508.27884" />
    <linearGradient
       inkscape:collect="always"
       xlink:href="#linearGradient3757"
       id="linearGradient3011"
       gradientUnits="userSpaceOnUse"
       gradientTransform="matrix(8.6642202,0,0,8.6642202,-2108.2034,-3360.5603)"
       x1="258.38568"
       y1="480.84665"
       x2="258.38568"
       y2="508.27884" />
    <linearGradient
       inkscape:collect="always"
       xlink:href="#linearGradient3757"
       id="linearGradient3025"
       gradientUnits="userSpaceOnUse"
       gradientTransform="matrix(8.6642202,0,0,8.6642202,-2108.2034,-3360.5603)"
       x1="258.38568"
       y1="480.84665"
       x2="258.38568"
       y2="508.27884" />
    <linearGradient
       inkscape:collect="always"
       xlink:href="#linearGradient3757"
       id="linearGradient3027"
       gradientUnits="userSpaceOnUse"
       gradientTransform="matrix(8.6642202,0,0,8.6642202,-2108.2034,-3360.5603)"
       x1="258.38568"
       y1="480.84665"
       x2="258.38568"
       y2="508.27884" />
    <linearGradient
       inkscape:collect="always"
       xlink:href="#linearGradient3757"
       id="linearGradient3033"
       gradientUnits="userSpaceOnUse"
       gradientTransform="matrix(8.6642202,0,0,8.6642202,-2142.5486,-3356.0146)"
       x1="258.38568"
       y1="480.84665"
       x2="258.38568"
       y2="508.27884" />
    <linearGradient
       inkscape:collect="always"
       xlink:href="#linearGradient3757"
       id="linearGradient3812"
       x1="116.16753"
       y1="15.078623"
       x2="116.16753"
       y2="231.11552"
       gradientUnits="userSpaceOnUse" />
    <linearGradient
       inkscape:collect="always"
       xlink:href="#linearGradient3757"
       id="linearGradient3826"
       gradientUnits="userSpaceOnUse"
       gradientTransform="matrix(8.6642202,0,0,8.6642202,-2108.2034,-3360.5603)"
       x1="258.38568"
       y1="480.84665"
       x2="258.38568"
       y2="508.27884" />
    <linearGradient
       inkscape:collect="always"
       xlink:href="#linearGradient3757"
       id="linearGradient3828"
       gradientUnits="userSpaceOnUse"
       gradientTransform="matrix(8.6642202,0,0,8.6642202,-2108.2034,-3360.5603)"
       x1="258.38568"
       y1="480.84665"
       x2="258.38568"
       y2="508.27884" />
    <linearGradient
       inkscape:collect="always"
       xlink:href="#linearGradient3757"
       id="linearGradient3839"
       gradientUnits="userSpaceOnUse"
       x1="116.16753"
       y1="15.078623"
       x2="116.16753"
       y2="231.11552" />
    <filter
       inkscape:collect="always"
       id="filter3950">
      <feGaussianBlur
         inkscape:collect="always"
         stdDeviation="1.1014844"
         id="feGaussianBlur3952" />
    </filter>
    <filter
       inkscape:collect="always"
       id="filter3958">
      <feGaussianBlur
         inkscape:collect="always"
         stdDeviation="1.3031433"
         id="feGaussianBlur3960" />
    </filter>
    <linearGradient
       inkscape:collect="always"
       xlink:href="#linearGradient3757"
       id="linearGradient3029"
       gradientUnits="userSpaceOnUse"
       x1="116.16753"
       y1="15.078623"
       x2="116.16753"
       y2="231.11552" />
  </defs>
  <sodipodi:namedview
     id="base"
     pagecolor="#ffffff"
     bordercolor="#666666"
     borderopacity="1.0"
     inkscape:pageopacity="0"
     inkscape:pageshadow="2"
     inkscape:zoom="2.8"
     inkscape:cx="135.12209"
     inkscape:cy="153.23004"
     inkscape:document-units="px"
     inkscape:current-layer="layer1"
     showgrid="false"
     inkscape:window-width="1920"
     inkscape:window-height="1018"
     inkscape:window-x="1912"
     inkscape:window-y="-8"
     inkscape:window-maximized="1"
     showguides="true"
     inkscape:guide-bbox="true" />
  <metadata
     id="metadata7">
    <rdf:RDF>
      <cc:Work
         rdf:about="">
        <dc:format>image/svg+xml</dc:format>
        <dc:type
           rdf:resource="http://purl.org/dc/dcmitype/StillImage" />
        <dc:title></dc:title>
      </cc:Work>
    </rdf:RDF>
  </metadata>
  <g
     inkscape:label="Layer 1"
     inkscape:groupmode="layer"
     id="layer1"
     transform="translate(0,-796.36215)">
    <g
       id="g3002"
       transform="matrix(0.84835562,0,0,0.84835562,252.53459,122.55312)">
      <path
         d="m 144.25,802.25 c -27.9775,0.43146 -50.098556,7.24227 -66.09375,20.59375 C 62.215203,836.1504 53.9545,853.52865 53.6875,874.4375 a 2.2108315,2.2108315 0 0 0 0,0.0625 c 0.267554,17.37707 6.461567,32.15162 18.375,43.78125 11.813973,11.53286 27.69873,20.68467 47.59375,27.59375 13.78401,4.64963 23.67928,9.43791 29.46875,14.09375 5.74599,4.6212 8.29907,9.89744 8.1875,16.375 a 2.2108315,2.2108315 0 0 0 0,0.0312 c -0.0268,7.13067 -2.7179,12.42369 -8.5,16.59375 -5.71078,4.11858 -14.45563,6.36209 -26.3125,6.46875 -0.021,-2.8e-4 -0.0415,2.9e-4 -0.0625,0 C 111.20602,999.28365 100.574,997.81998 90.53125,995 80.38594,992.15138 71.848961,988.87883 64.9375,985.1875 A 2.2108315,2.2108315 0 0 0 61.75,986.59375 L 51,1029.9062 a 2.2108315,2.2108315 0 0 0 1.09375,2.4688 c 7.117229,3.9374 16.608396,7.3087 28.5625,10.2188 12.012414,2.9243 24.89599,4.4717 38.65625,4.625 a 2.2108315,2.2108315 0 0 0 0.0625,0 c 32.27455,-0.576 56.51018,-7.8125 72.4375,-22.0938 15.77229,-14.1427 23.75255,-31.84753 23.65625,-52.5625 0.0666,-16.79967 -5.04479,-31.25168 -15.25,-42.9375 -10.19599,-11.67466 -25.71678,-21.18173 -46.5,-28.78125 a 2.2108315,2.2108315 0 0 0 0,-0.0312 C 138.65884,895.4003 127.75161,890.37492 121.125,885.90625 114.64825,881.53904 111.75277,876.45475 111.84375,870 a 2.2108315,2.2108315 0 0 0 0,-0.0312 c -0.0129,-5.41256 2.30912,-9.88318 7.53125,-13.9375 5.04635,-3.91761 13.07454,-6.1697 24.1875,-6.375 0.0223,3.6e-4 0.0402,-3.7e-4 0.0625,0 11.13571,0.18239 20.70858,1.46681 28.6875,3.78125 8.15228,2.36517 14.45134,4.71902 18.78125,7.03125 A 2.2108315,2.2108315 0 0 0 194.25,859.125 l 11.78125,-42.28125 A 2.2108315,2.2108315 0 0 0 204.875,814.25 c -7.08481,-3.47147 -15.56073,-6.26951 -25.46875,-8.5 -9.98526,-2.24733 -21.71246,-3.41962 -35.125,-3.5 a 2.2108315,2.2108315 0 0 0 -0.0312,0 z"
         id="path3881"
         style="font-size:346.56881714px;font-style:normal;font-variant:normal;font-weight:bold;font-stretch:normal;text-align:start;line-height:125%;letter-spacing:0px;word-spacing:0px;writing-mode:lr-tb;text-anchor:start;fill:#22280b;fill-opacity:1;stroke:none;filter:url(#filter3891);font-family:Myriad Pro;-inkscape-font-specification:Myriad Pro Bold"
         inkscape:original="M 144.28125 804.46875 C 116.64266 804.89498 95.071197 811.58586 79.5625 824.53125 C 64.053722 837.47707 56.166155 854.1155 55.90625 874.46875 C 56.166162 891.34947 62.070468 905.43873 73.59375 916.6875 C 85.116964 927.93652 100.70741 936.95115 120.375 943.78125 C 134.28802 948.4744 144.34116 953.29711 150.5 958.25 C 156.65862 963.20306 159.65387 969.25607 159.53125 976.375 C 159.50224 984.10056 156.36067 990.23028 150.09375 994.75 C 143.82661 999.26982 134.62729 1001.5552 122.46875 1001.6562 C 111.03928 1001.5047 100.19719 1000.0059 89.9375 997.125 C 79.677706 994.24423 71.003561 990.91559 63.90625 987.125 L 53.15625 1030.4375 C 60.008097 1034.2281 69.353741 1037.5567 81.1875 1040.4375 C 93.021175 1043.3183 105.73381 1044.8484 119.34375 1045 C 151.30698 1044.4296 174.97204 1037.2519 190.34375 1023.4688 C 205.71516 1009.6856 213.34368 992.71382 213.25 972.5625 C 213.31481 956.20907 208.41776 942.37885 198.5625 931.09375 C 188.70693 919.80887 173.52421 910.42249 152.96875 902.90625 C 137.8209 897.46245 126.79176 892.41433 119.875 887.75 C 112.95808 883.08598 109.52384 877.14568 109.625 869.96875 C 109.61049 863.87516 112.41395 858.64237 118.03125 854.28125 C 123.6484 849.92051 132.17147 847.63985 143.59375 847.4375 C 154.90751 847.6182 164.69925 848.92284 172.9375 851.3125 C 181.17549 853.70254 187.56897 856.09827 192.125 858.53125 L 203.90625 816.25 C 197.02535 812.87844 188.68933 810.10861 178.90625 807.90625 C 169.12289 805.70436 157.57331 804.54841 144.28125 804.46875 z "
         inkscape:radius="2.2106104"
         sodipodi:type="inkscape:offset" />
      <text
         xml:space="preserve"
         style="font-size:346.56881714px;font-style:normal;font-variant:normal;font-weight:bold;font-stretch:normal;text-align:start;line-height:125%;letter-spacing:0px;word-spacing:0px;writing-mode:lr-tb;text-anchor:start;fill:url(#linearGradient3009);fill-opacity:1;stroke:none;font-family:Myriad Pro;-inkscape-font-specification:Myriad Pro Bold"
         x="39.285503"
         y="1041.5261"
         id="text3851"
         sodipodi:linespacing="125%"><tspan
           sodipodi:role="line"
           id="tspan3853"
           x="39.285503"
           y="1041.5261"
           style="fill:url(#linearGradient3009);fill-opacity:1">S</tspan></text>
      <g
         id="text2985"
         style="font-size:346.56881714px;font-style:normal;font-variant:normal;font-weight:bold;font-stretch:normal;text-align:start;line-height:125%;letter-spacing:0px;word-spacing:0px;writing-mode:lr-tb;text-anchor:start;fill:url(#linearGradient3011);fill-opacity:1;stroke:none;font-family:Myriad Pro;-inkscape-font-specification:Myriad Pro Bold">
        <path
           id="path3868"
           transform="translate(0,796.36215)"
           d="M 144.28125,8.125 C 116.64266,8.55123 95.071197,15.21086 79.5625,28.15625 64.053722,41.10207 56.166155,57.77175 55.90625,78.125 56.111945,91.484439 59.86487,103.07421 67.125,112.90625 84.157724,120.67454 105.2072,125.25 128,125.25 c 17.7414,0 34.44103,-2.7909 49,-7.6875 -6.9738,-4.03762 -14.98519,-7.7235 -24.03125,-11.03125 C 137.8209,101.08745 126.79176,96.03933 119.875,91.375 c -6.91692,-4.66402 -10.35116,-10.57307 -10.25,-17.75 -0.0145,-6.09359 2.78895,-11.32638 8.40625,-15.6875 5.61715,-4.36074 14.14023,-6.64139 25.5625,-6.84375 11.31376,0.1807 21.10549,1.45409 29.34375,3.84375 8.23798,2.39004 14.63148,4.81702 19.1875,7.25 l 11.78125,-42.28125 c -6.8809,-3.37155 -15.21692,-6.17264 -25,-8.375 -9.78336,-2.20189 -21.33294,-3.32659 -34.625,-3.40625 z"
           style="fill:#aad400"
           inkscape:connector-curvature="0" />
      </g>
    </g>
    <g
       id="g3022"
       transform="matrix(1.1335338,0,0,1.1335338,-17.091662,-123.43383)">
      <path
         transform="translate(7.7918472,802.20736)"
         d="m 120.21875,12.46875 c -60.551803,0 -109.6875,49.135697 -109.6875,109.6875 0,60.55181 49.135697,109.6875 109.6875,109.6875 60.55181,0 109.65625,-49.13643 109.65625,-109.6875 0,-60.551066 -49.10444,-109.6875 -109.65625,-109.6875 z"
         id="path3841"
         style="fill:#62002a;fill-opacity:1;filter:url(#filter3950)"
         inkscape:original="M 120.21875 14.5625 C 60.803265 14.5625 12.625 62.740765 12.625 122.15625 C 12.625 181.57174 60.803265 229.75 120.21875 229.75 C 179.63424 229.75 227.78125 181.57174 227.78125 122.15625 C 227.78125 62.740765 179.63424 14.5625 120.21875 14.5625 z "
         inkscape:radius="2.1020341"
         sodipodi:type="inkscape:offset" />
      <path
         transform="translate(7.7918472,802.20736)"
         d="m 227.78941,122.15479 c 0,59.41549 -48.16577,107.58126 -107.58126,107.58126 -59.415483,0 -107.58125,-48.16577 -107.58125,-107.58126 0,-59.415483 48.165767,-107.58125 107.58125,-107.58125 59.41549,0 107.58126,48.165767 107.58126,107.58125 z"
         sodipodi:ry="107.58125"
         sodipodi:rx="107.58125"
         sodipodi:cy="122.15479"
         sodipodi:cx="120.20815"
         id="path3804"
         style="fill:url(#linearGradient3029);fill-opacity:1"
         sodipodi:type="arc" />
      <path
         d="m 134.96875,846.75 c -17.7328,0.27347 -31.78759,4.61627 -41.90625,13.0625 -10.083378,8.41701 -15.268612,19.39927 -15.4375,32.625 -3.62e-4,0.0264 -3.62e-4,0.0361 0,0.0625 0.169198,10.98909 4.093778,20.30444 11.625,27.65625 7.453476,7.27612 17.44689,13.09395 30,17.46875 0.0257,0.002 0.0255,-0.0129 0.0625,0 l -0.0937,0.3125 -0.125,0.28125 c -0.0585,-0.029 0.0896,0.0292 0.0312,0 l 0.15625,-0.25 0,0.3125 c -0.13173,3.7e-4 0.16298,0 0.0312,0 l 0,-0.3125 0.0937,-0.3125 c 8.76182,2.95555 15.01915,5.99356 18.71875,8.96875 3.65481,2.93937 5.32115,6.33847 5.25,10.46875 -9e-5,0.0132 -9e-5,0.018 0,0.0312 -0.0171,4.54143 -1.76042,7.97308 -5.4375,10.625 -3.66337,2.64199 -9.25312,4.08517 -16.78125,4.15625 -0.0123,9e-5 -0.0402,3.1e-4 -0.0625,0 -7.12805,-0.0996 -13.86942,-0.98961 -20.25,-2.78125 -6.442151,-1.80884 -11.909507,-3.92967 -16.3125,-6.28125 -0.03607,-0.0193 -0.0852,-0.0439 -0.125,-0.0937 -0.0084,-0.003 -0.02256,0.004 -0.03125,0 -0.0262,-0.009 -0.02549,-0.0288 -0.03125,-0.0312 -0.0086,-0.004 -0.03532,0.007 -0.0625,0 -0.02647,7.8e-4 -0.04296,0.004 -0.0625,0 -0.02711,-0.006 -0.03582,-0.0204 -0.0625,-0.0312 -0.02551,0.002 -0.05623,0.003 -0.09375,0 -5.32e-4,5e-5 -0.02218,0.001 -0.0625,0 -0.0015,9e-5 -0.03082,-6.9e-4 -0.0625,0 -0.03801,8.3e-4 -0.06208,3e-5 -0.0625,0 -0.02389,0.002 -0.03815,0.002 -0.0625,0 -0.0089,0.003 -0.03133,10e-6 -0.03125,0 0.01052,-0.001 -0.03222,-1.6e-4 -0.03125,0 -0.01534,0.005 -0.01755,0.0286 -0.03125,0.0312 -0.02843,0.006 -0.05606,0.003 -0.09375,0 -0.0021,5.5e-4 -0.0187,5.7e-4 -0.03125,0 -0.03528,0.0217 -0.04047,0.0229 -0.0625,0.0312 -0.0392,0.0149 -0.09094,0.0306 -0.09375,0.0312 0.01875,-0.0108 -0.0025,0.0164 -0.03125,0.0312 -0.0065,0.005 -0.05475,0.0394 -0.09375,0.0625 -0.0075,0.004 -0.02354,-0.004 -0.03125,0 -0.03578,0.0241 -0.05307,0.0254 -0.0625,0.0312 -9.2e-4,0.001 -0.0407,0.0384 -0.03125,0.0312 -0.01798,0.0214 -0.0091,0.0436 -0.03125,0.0625 -0.0087,0.01 -0.04195,0.0116 -0.0625,0.0312 -0.04411,0.0422 -0.02354,0.0208 -0.0625,0.0625 -0.02721,0.0291 -0.06426,0.0639 -0.0625,0.0625 -0.0072,0.007 -0.02407,-0.006 -0.03125,0 -0.0031,0.009 0.0023,0.0281 0,0.0312 -0.01026,0.0366 -0.01482,0.0687 -0.03125,0.0937 -0.0093,0.0142 -0.01809,0.0157 -0.03125,0.0312 -0.003,0.012 -0.02733,0.0183 -0.03125,0.0312 -0.0067,0.0222 0.0088,0.0449 0,0.0625 -0.01619,0.0322 -0.05477,0.0569 -0.09375,0.0937 7.64e-4,0.0199 0.002,0.0187 0,0.0312 -1.68e-4,-0.002 -0.03107,0.002 -0.03125,0 -0.002,0.005 0.03388,0.0257 0.03125,0.0312 7.27e-4,0.0283 0.005,0.042 0,0.0625 l -6.8125,27.5 c -0.01185,0.0491 -0.03201,0.096 -0.03125,0.0937 7.6e-4,-0.002 0.0053,-0.003 0,0.0312 -0.0069,0.0443 -0.01973,0.0634 -0.03125,0.0937 -0.0038,0.0514 -0.0015,0.0598 0,0.0937 5.09e-4,0.0113 -2.07e-4,0.008 0,0.0312 0.01504,0.0404 0.02787,0.0565 0.03125,0.0937 0.0035,0.0381 0.004,0.0584 0,0.0937 0.0064,0.0365 7.4e-4,0.0337 0,0.0312 -9.07e-4,0.007 -1.26e-4,0.0318 0,0.0312 0.004,0.013 0.02407,0.004 0.03125,0.0312 0.01277,0.0491 3.75e-4,0.0961 0,0.0937 -3.75e-4,-0.002 0.02005,-7.9e-4 0.03125,0.0312 0.01182,0.0194 0.01494,0.0571 0.03125,0.0937 0.0087,0.0197 0.02381,0.038 0.03125,0.0625 -0.0063,-0.0116 -0.01009,0.002 0,0.0312 0.01585,0.0176 0.03647,0.0229 0.0625,0.0625 0.02654,0.0403 0.0691,0.10588 0.0625,0.0937 -1.2e-5,-10e-6 0.02455,0.0214 0.0625,0.0625 0.05749,0.0622 0.03205,0.0371 0.09375,0.0937 0.04153,0.0382 0.06249,0.0625 0.0625,0.0625 -0.01214,-0.007 0.05368,0.0363 0.09375,0.0625 0.003,0.001 0.0452,0.005 0.09375,0.0312 4.501258,2.49017 10.483426,4.6237 18.0625,6.46875 7.61111,1.8529 15.77674,2.8717 24.5,2.9688 0.0261,4e-4 0.0364,4e-4 0.0625,0 20.46216,-0.3652 35.80263,-4.99983 45.875,-14.0313 9.97853,-8.94748 15.02966,-20.11581 14.96875,-33.21875 0.0421,-10.62727 -3.20479,-19.73753 -9.65625,-27.125 -6.44824,-7.38338 -16.26096,-13.46316 -29.4375,-18.28125 -9.47144,-3.40382 -16.35459,-6.57574 -20.59375,-9.40625 -0.007,-0.004 -0.0246,0.004 -0.0312,0 -0.0102,-0.002 -0.018,-0.0273 -0.0312,-0.0312 -0.007,-0.004 -0.0246,0.004 -0.0312,0 -5.2e-4,-2e-4 -0.062,-0.0309 -0.0625,-0.0312 a 0.31478346,0.31478346 0 0 1 0,-0.0312 c -0.007,-0.005 -0.024,0.005 -0.0312,0 A 0.31478346,0.31478346 0 0 1 120.125,899.75 c -0.0126,-0.009 -0.0187,-0.0226 -0.0312,-0.0312 -4.01436,-2.75669 -5.86975,-6.00144 -5.8125,-10.0625 9e-5,-0.0132 9e-5,-0.018 0,-0.0312 -0.008,-3.44985 1.51951,-6.41915 4.84375,-9 3.24559,-2.51964 8.34949,-3.89753 15.40625,-4.03125 0.001,2e-5 0.0139,-8e-4 0.0625,0 7.06807,0.11736 13.14638,0.90367 18.21875,2.375 5.14945,1.49398 9.13881,2.99773 11.90625,4.46875 0.013,0.003 0.0227,-0.002 0.0312,0 0.009,0.002 0.0311,-8e-5 0.0312,0 0.0188,0.01 0.003,0.018 0.0312,0.0312 0.0435,0.0201 0.0694,0.0426 0.0937,0.0625 0.009,0.008 0.0293,0.0294 0.0312,0.0312 0.004,0.003 0.0128,-0.0225 0,-0.0312 0.0394,-0.002 0.0651,-0.008 0.0937,0 0.0422,0.0115 0.0902,0.0296 0.0937,0.0312 0.0109,0.002 0.0181,0.0266 0.0312,0.0312 0.0134,-8.5e-4 0.0165,1.5e-4 0.0312,0 0.0147,-1.5e-4 0.0185,-0.001 0.0312,0 0.0183,-0.001 0.0351,-0.001 0.0625,0 0.0508,0.002 0.0312,7.2e-4 0.0937,0 0.0354,-4.1e-4 0.061,-8e-5 0.0625,0 0.0258,-0.0119 0.0819,0.0101 0.125,0 0.004,-0.001 -0.004,-0.0305 0,-0.0312 0.0213,-0.004 0.035,-0.001 0.0625,0 0.008,-0.004 0.024,0.003 0.0312,0 0.012,-0.004 0.0208,-0.0281 0.0312,-0.0312 0.0521,-0.0155 0.0391,0.0196 0.0937,0 0.0213,-0.008 0.0172,-0.0272 0.0312,-0.0312 -0.0143,0.01 0.0629,-0.0161 0.0937,-0.0312 -0.006,0.005 0.007,0.0241 0,0.0312 0.009,-0.0118 0.0194,-0.0163 0.0312,-0.0312 0.009,-0.007 0.0286,-0.0298 0.0312,-0.0312 0.0199,-0.0219 0.0448,-0.02 0.0625,-0.0312 0.0222,-0.0142 0.0316,-0.0218 0.0625,-0.0312 0.0102,-0.0121 0.0189,-0.0181 0.0312,-0.0312 4.8e-4,-6.2e-4 0.0431,-0.0408 0.0312,-0.0312 0.0135,-0.0151 0.0156,-0.0172 0.0312,-0.0312 0.0365,-0.0329 0.0164,-0.0161 0.0625,-0.0625 0.0239,-0.0241 0.0321,-0.032 0.0312,-0.0312 -8.6e-4,7.8e-4 -0.0155,-0.0138 0,-0.0312 0.007,-0.007 0.0232,0.008 0.0312,0 0.0134,-0.013 0.0205,-0.022 0.0312,-0.0312 0.0106,-0.0197 0.0218,-0.0491 0.0312,-0.0625 0.009,-0.0126 0.0162,-0.0169 0.0312,-0.0312 0.009,-0.0361 0.0149,-0.0642 0.0312,-0.0937 0.0108,-0.0196 0.0441,-0.0402 0.0625,-0.0625 0.002,-0.003 0.029,0.004 0.0312,0 a 0.31478346,0.31478346 0 0 1 0,-0.0312 0.31478346,0.31478346 0 0 1 0,-0.0312 0.31478346,0.31478346 0 0 1 0,-0.0937 0.31478346,0.31478346 0 0 1 0,-0.0312 L 174,855.875 c 0.004,-0.0132 0.0225,-0.0143 0.0312,-0.0312 6.1e-4,-0.003 -0.005,-0.0229 0,-0.0312 0.001,-0.008 -0.001,-0.0246 0,-0.0312 0.004,-0.006 0.0278,0.005 0.0312,0 9.3e-4,0.009 -9.7e-4,-0.0246 0,-0.0312 5.9e-4,-0.004 -0.002,-0.0239 0,-0.0312 -7.7e-4,-0.004 0.001,-0.0732 0,-0.0625 -7.6e-4,-0.0109 4.1e-4,-0.0197 0,-0.0312 -3.9e-4,-0.005 9.9e-4,-0.0486 0,-0.0312 -5e-4,-0.0121 -1.9e-4,-0.0172 0,-0.0312 6.6e-4,-0.0479 0.001,-0.0195 0,-0.0625 -4.6e-4,-0.0153 -8.2e-4,-0.0155 0,-0.0312 0.001,0.0149 -5.5e-4,-0.0264 0,-0.0312 9e-5,-0.0262 -4.8e-4,-0.0565 0,-0.0625 -0.001,-0.0109 6.1e-4,-0.0184 0,-0.0312 1.4e-4,8.7e-4 -3.9e-4,-0.006 0,-0.0312 -0.003,-0.0118 -0.0291,-0.021 -0.0312,-0.0312 -0.001,-0.007 0.001,-0.0233 0,-0.0312 -0.006,-0.0101 0.005,-0.0212 0,-0.0312 -0.008,-0.016 -0.0275,-0.0187 -0.0312,-0.0312 -0.004,-0.0133 0.003,-0.0444 0,-0.0625 -0.001,-0.004 0.002,-0.0227 0,-0.0312 1.9e-4,2.9e-4 -0.0176,-0.032 -0.0312,-0.0625 -0.0153,-0.0341 -0.008,0.0153 -0.0312,-0.0312 -0.0233,-0.0467 -0.0132,-0.0299 -0.0312,-0.0625 -0.0163,-0.0293 -0.0314,-0.0628 -0.0312,-0.0625 -0.006,-0.0104 0.007,-0.0172 0,-0.0312 8.7e-4,0.001 0.005,-0.0207 0,-0.0312 -0.009,-0.006 -0.027,0.004 -0.0312,0 -0.0214,-0.0175 -0.0235,-0.0225 -0.0312,-0.0312 -0.008,-0.009 -0.0254,-0.024 -0.0312,-0.0312 -0.008,-0.01 -0.0234,-0.0159 -0.0312,-0.0312 -0.0176,-0.0346 0.0111,-0.0615 0,-0.0937 -0.006,-0.002 -0.0217,0.003 -0.0312,0 -0.003,-0.001 0.003,-0.03 0,-0.0312 -0.0313,-0.0109 -0.0599,0.0172 -0.0937,0 -0.015,-0.008 -0.0216,-0.0236 -0.0312,-0.0312 -0.007,-0.006 -0.0221,-0.0233 -0.0312,-0.0312 0.002,0.001 0.003,-0.0288 0,-0.0312 0,0 -0.0221,0.004 -0.0312,0 -0.003,-0.001 0.004,-0.0297 0,-0.0312 -0.006,-0.007 -0.0264,0.006 -0.0312,0 -0.005,-0.006 -0.0283,0.004 -0.0312,0 3.7e-4,1.4e-4 -0.0343,-0.0159 -0.0625,-0.0312 -0.0351,-0.0191 0.0132,-0.009 -0.0312,-0.0312 -4.48029,-2.19529 -9.84325,-3.9921 -16.125,-5.40625 -6.32398,-1.4233 -13.74632,-2.19904 -22.25,-2.25 -0.0132,-9e-5 -0.018,-9e-5 -0.0312,0 z m 30.59375,36.84375 c 0.007,0.002 -0.007,0.0297 0,0.0312 0.0134,0.003 0.0309,-1.2e-4 0.0312,0 -0.006,-0.002 0.006,-0.029 0,-0.0312 -0.005,0.003 -0.0251,-0.005 -0.0312,0 z M 82.75,963.5 c -0.0015,-0.0398 -0.03196,-0.0956 -0.03125,-0.0937 5.94e-4,0.002 -0.0048,0.0559 0,0.0937 0.0049,-0.006 0.02742,0.005 0.03125,0 z m 90.71875,-109.125 c -4e-5,-1.7e-4 0.0181,0.0322 0.0312,0.0625 -1.5e-4,-2.7e-4 -0.0211,-0.0316 -0.0312,-0.0625 z m 0.4375,0.46875 c 0.004,0.002 -0.005,0.0291 0,0.0312 0.0283,0.013 0.0626,4e-5 0.0625,0 -0.0297,-0.0104 -0.0622,-0.0311 -0.0625,-0.0312 z"
         id="path3962"
         style="font-size:219.93424988px;font-style:normal;font-variant:normal;font-weight:bold;font-stretch:normal;text-align:start;line-height:125%;letter-spacing:0px;word-spacing:0px;writing-mode:lr-tb;text-anchor:start;fill:#550022;fill-opacity:1;stroke:none;filter:url(#filter3958);font-family:Myriad Pro;-inkscape-font-specification:Myriad Pro Bold"
         inkscape:original="M 134.96875 846.4375 C 117.18724 846.71172 103.06302 851.05837 92.875 859.5625 C 82.728745 868.032 77.482416 879.13129 77.3125 892.4375 C 77.312126 892.46474 77.312126 892.47276 77.3125 892.5 C 77.482812 903.56146 81.443886 912.96839 89.03125 920.375 C 96.525202 927.69063 106.57001 933.55115 119.15625 937.9375 C 119.1752 937.94411 119.19978 937.9309 119.21875 937.9375 A 0.69877376 0.69877376 0 0 1 119.28125 937.96875 A 0.69877376 0.69877376 0 0 1 119.3125 937.96875 C 128.0555 940.91795 134.29211 943.9434 137.9375 946.875 C 141.53725 949.77009 143.13217 953.04911 143.0625 957.09375 C 143.06241 957.10737 143.06241 957.11138 143.0625 957.125 C 143.04574 961.58786 141.36221 964.89486 137.75 967.5 C 134.16607 970.0847 128.64555 971.52304 121.15625 971.59375 C 121.1533 971.59371 121.13384 971.59431 121.09375 971.59375 C 113.98946 971.49446 107.2891 970.596 100.9375 968.8125 C 94.512214 967.0084 89.064125 964.9 84.6875 962.5625 C 84.637708 962.53586 84.676228 962.52376 84.625 962.5 C 84.573772 962.47624 84.583749 962.48955 84.53125 962.46875 C 84.478751 962.44795 84.522348 962.45527 84.46875 962.4375 C 84.415152 962.41973 84.429524 962.42094 84.375 962.40625 C 84.320476 962.39156 84.336522 962.41781 84.28125 962.40625 C 84.225978 962.39469 84.243341 962.38339 84.1875 962.375 C 84.131659 962.36661 84.149979 962.3802 84.09375 962.375 C 84.037521 962.3698 84.056433 962.37699 84 962.375 C 83.943567 962.37301 83.993955 962.37377 83.9375 962.375 C 83.881045 962.37623 83.900043 962.37055 83.84375 962.375 C 83.787457 962.37945 83.805948 962.36735 83.75 962.375 C 83.694052 962.38265 83.711671 962.39543 83.65625 962.40625 C 83.600829 962.41707 83.617215 962.39229 83.5625 962.40625 C 83.507785 962.42021 83.52258 962.42044 83.46875 962.4375 C 83.41492 962.45456 83.459021 962.44865 83.40625 962.46875 C 83.353479 962.48885 83.36404 962.47693 83.3125 962.5 C 83.26096 962.52307 83.300142 962.50528 83.25 962.53125 C 83.199858 962.55722 83.204831 962.56497 83.15625 962.59375 C 83.107669 962.62253 83.140612 962.59349 83.09375 962.625 C 83.046888 962.65651 83.044991 962.65338 83 962.6875 C 82.955009 962.72162 82.980474 962.71337 82.9375 962.75 C 82.894526 962.78663 82.915817 962.77348 82.875 962.8125 C 82.834183 962.85152 82.851028 962.83372 82.8125 962.875 C 82.773972 962.91628 82.786113 962.89409 82.75 962.9375 C 82.713887 962.98091 82.721081 962.9546 82.6875 963 C 82.653919 963.0454 82.68719 963.04651 82.65625 963.09375 C 82.62531 963.14099 82.621949 963.10733 82.59375 963.15625 C 82.565551 963.20517 82.587866 963.19955 82.5625 963.25 C 82.537134 963.30045 82.52245 963.26069 82.5 963.3125 C 82.47755 963.36431 82.488211 963.35324 82.46875 963.40625 C 82.449289 963.45926 82.45391 963.41472 82.4375 963.46875 C 82.42109 963.52278 82.450805 963.50762 82.4375 963.5625 L 75.625 991.0625 C 75.605955 991.14136 75.60628 991.10735 75.59375 991.1875 C 75.58122 991.26765 75.56843 991.23159 75.5625 991.3125 C 75.55657 991.39341 75.561791 991.38763 75.5625 991.46875 C 75.563209 991.54987 75.586407 991.51296 75.59375 991.59375 C 75.601093 991.67454 75.579822 991.63883 75.59375 991.71875 C 75.607678 991.79867 75.604581 991.76523 75.625 991.84375 C 75.645419 991.92227 75.629476 991.89217 75.65625 991.96875 C 75.683024 992.04533 75.685801 992.01961 75.71875 992.09375 C 75.751699 992.16789 75.711097 992.11631 75.75 992.1875 C 75.788903 992.25869 75.799153 992.24473 75.84375 992.3125 C 75.888347 992.38027 75.856259 992.34236 75.90625 992.40625 C 75.956241 992.47014 75.944949 992.44041 76 992.5 C 76.055051 992.55959 76.034009 992.53886 76.09375 992.59375 C 76.153491 992.64864 76.123469 992.63768 76.1875 992.6875 C 76.251531 992.73732 76.213358 992.70559 76.28125 992.75 C 76.349142 992.79441 76.334952 992.77379 76.40625 992.8125 C 80.94441 995.32308 86.966342 997.46329 94.5625 999.3125 C 102.19829 1001.1714 110.37963 1002.1839 119.125 1002.2812 C 119.15224 1002.2817 119.16026 1002.2817 119.1875 1002.2812 C 139.69448 1001.9153 155.13053 997.25797 165.28125 988.15625 C 175.31752 979.157 180.40504 967.90349 180.34375 954.71875 C 180.38612 944.0268 177.12674 934.82005 170.625 927.375 C 164.12852 919.93638 154.24016 913.86118 141.03125 909.03125 C 131.49556 905.60434 124.59493 902.41376 120.40625 899.59375 C 120.39905 899.58889 120.38219 899.59861 120.375 899.59375 L 120.375 899.5625 C 116.3393 896.82869 114.53733 893.6587 114.59375 889.65625 C 114.59384 889.64263 114.59384 889.63862 114.59375 889.625 C 114.58576 886.26661 116.04272 883.41357 119.3125 880.875 C 122.47535 878.41959 127.51289 877.03924 134.53125 876.90625 C 134.53264 876.90627 134.55011 876.90553 134.59375 876.90625 C 141.64109 877.02327 147.68163 877.82015 152.71875 879.28125 C 157.8706 880.77593 161.8592 882.26171 164.59375 883.71875 C 164.60833 883.7265 164.61906 883.7156 164.625 883.71875 C 164.63887 883.72611 164.65254 883.73384 164.6875 883.75 C 164.73744 883.77308 164.7301 883.79223 164.78125 883.8125 C 164.8324 883.83277 164.79155 883.82635 164.84375 883.84375 C 164.89595 883.86115 164.88442 883.82927 164.9375 883.84375 C 164.99058 883.85823 164.97745 883.86349 165.03125 883.875 C 165.08505 883.88651 165.03939 883.89775 165.09375 883.90625 C 165.14811 883.91475 165.13275 883.90078 165.1875 883.90625 C 165.24225 883.91172 165.22628 883.90382 165.28125 883.90625 C 165.33622 883.90868 165.31998 883.90688 165.375 883.90625 C 165.43002 883.90562 165.41385 883.90993 165.46875 883.90625 C 165.52365 883.90257 165.47664 883.91297 165.53125 883.90625 C 165.58586 883.89953 165.57085 883.88475 165.625 883.875 C 165.67915 883.86525 165.66522 883.88774 165.71875 883.875 C 165.77228 883.86226 165.72851 883.85944 165.78125 883.84375 C 165.83399 883.82806 165.82322 883.83109 165.875 883.8125 C 165.92678 883.79391 165.91808 883.80269 165.96875 883.78125 C 166.01942 883.75981 165.98185 883.77422 166.03125 883.75 C 166.08065 883.72578 166.07702 883.74567 166.125 883.71875 C 166.17298 883.69183 166.14109 883.6858 166.1875 883.65625 C 166.23391 883.6267 166.23655 883.65708 166.28125 883.625 C 166.32595 883.59292 166.3009 883.59701 166.34375 883.5625 C 166.3866 883.52799 166.36538 883.53683 166.40625 883.5 C 166.44712 883.46317 166.42999 883.47655 166.46875 883.4375 C 166.50751 883.39845 166.49471 883.41614 166.53125 883.375 C 166.56779 883.33386 166.55955 883.3556 166.59375 883.3125 C 166.62795 883.2694 166.59325 883.29493 166.625 883.25 C 166.65675 883.20507 166.65829 883.23413 166.6875 883.1875 C 166.71671 883.14087 166.69218 883.14193 166.71875 883.09375 C 166.74532 883.04557 166.75739 883.08083 166.78125 883.03125 C 166.80511 882.98167 166.79143 882.98833 166.8125 882.9375 C 166.83357 882.88667 166.82554 882.89567 166.84375 882.84375 C 166.86196 882.79183 166.8597 882.8341 166.875 882.78125 L 166.84375 882.78125 L 174.3125 855.96875 C 174.32414 855.92736 174.33392 855.94811 174.34375 855.90625 C 174.35358 855.86439 174.33574 855.886 174.34375 855.84375 C 174.35176 855.8015 174.36883 855.8238 174.375 855.78125 C 174.38117 855.7387 174.37069 855.73028 174.375 855.6875 C 174.37931 855.64472 174.37255 855.66793 174.375 855.625 C 174.37745 855.58207 174.37441 855.6055 174.375 855.5625 C 174.37559 855.5195 174.37628 855.54298 174.375 855.5 C 174.37372 855.45702 174.37814 855.48038 174.375 855.4375 C 174.37186 855.39462 174.38 855.38646 174.375 855.34375 C 174.37 855.30104 174.38185 855.3237 174.375 855.28125 C 174.36815 855.2388 174.35243 855.26086 174.34375 855.21875 C 174.33507 855.17664 174.35425 855.19795 174.34375 855.15625 C 174.33325 855.11455 174.3248 855.13495 174.3125 855.09375 C 174.3002 855.05255 174.32658 855.07188 174.3125 855.03125 C 174.29842 854.99062 174.29708 855.00873 174.28125 854.96875 C 174.26542 854.92877 174.26755 854.9455 174.25 854.90625 C 174.23245 854.867 174.23799 854.88221 174.21875 854.84375 C 174.19951 854.80529 174.20839 854.81884 174.1875 854.78125 C 174.16661 854.74366 174.17875 854.75539 174.15625 854.71875 C 174.13375 854.68211 174.14907 854.69188 174.125 854.65625 C 174.10093 854.62062 174.08809 854.6283 174.0625 854.59375 C 174.03691 854.5592 174.05832 854.59591 174.03125 854.5625 C 174.00418 854.52909 174.02849 854.53221 174 854.5 C 173.97151 854.46779 173.96736 854.46844 173.9375 854.4375 C 173.90764 854.40656 173.93743 854.43586 173.90625 854.40625 C 173.87507 854.37664 173.87618 854.37198 173.84375 854.34375 C 173.81132 854.31552 173.81488 854.3393 173.78125 854.3125 C 173.74762 854.2857 173.78476 854.30657 173.75 854.28125 C 173.71524 854.25593 173.72332 854.24253 173.6875 854.21875 C 173.65168 854.19497 173.66182 854.20971 173.625 854.1875 C 173.58818 854.16529 173.60025 854.17684 173.5625 854.15625 C 173.52475 854.13566 173.53861 854.14393 173.5 854.125 C 168.99189 851.91608 163.61278 850.10582 157.3125 848.6875 C 150.96076 847.25795 143.52153 846.48857 135 846.4375 C 134.98638 846.43741 134.98237 846.43741 134.96875 846.4375 z "
         inkscape:radius="-0.31475198"
         sodipodi:type="inkscape:offset" />
      <text
         sodipodi:linespacing="125%"
         id="text3818"
         y="998.479"
         x="68.353905"
         style="font-size:219.93424988px;font-style:normal;font-variant:normal;font-weight:bold;font-stretch:normal;text-align:start;line-height:125%;letter-spacing:0px;word-spacing:0px;writing-mode:lr-tb;text-anchor:start;fill:#ffffff;fill-opacity:1;stroke:#800033;stroke-width:0.89432985;font-family:Myriad Pro;-inkscape-font-specification:Myriad Pro Bold"
         xml:space="preserve"><tspan
           style="fill:#ffffff;fill-opacity:1;stroke:#800033;stroke-width:0.89432985"
           y="998.479"
           x="68.353905"
           id="tspan3820"
           sodipodi:role="line">S</tspan></text>
    </g>
  </g>
</svg>
