<?xml version="1.0" encoding="UTF-8" standalone="no"?>
<!-- Created with Inkscape (http://www.inkscape.org/) -->

<svg
   xmlns:dc="http://purl.org/dc/elements/1.1/"
   xmlns:cc="http://creativecommons.org/ns#"
   xmlns:rdf="http://www.w3.org/1999/02/22-rdf-syntax-ns#"
   xmlns:svg="http://www.w3.org/2000/svg"
   xmlns="http://www.w3.org/2000/svg"
   xmlns:xlink="http://www.w3.org/1999/xlink"
   xmlns:sodipodi="http://sodipodi.sourceforge.net/DTD/sodipodi-0.dtd"
   xmlns:inkscape="http://www.inkscape.org/namespaces/inkscape"
   width="256"
   height="256"
   id="svg2"
   version="1.1"
   inkscape:version="0.48.2 r9819"
   sodipodi:docname="icon.svg"
   inkscape:export-filename="C:\Development\Kunden\69 Grad\Testing\SpecificationTextToTestConverter\SpecificationTextToTestConverter\Graphics\icon.png"
   inkscape:export-xdpi="90"
   inkscape:export-ydpi="90">
  <defs
     id="defs4">
    <linearGradient
       id="linearGradient3757">
      <stop
         style="stop-color:#aad400;stop-opacity:1;"
         offset="0"
         id="stop3759" />
      <stop
         style="stop-color:#9cc200;stop-opacity:1;"
         offset="1"
         id="stop3761" />
    </linearGradient>
    <linearGradient
       inkscape:collect="always"
       xlink:href="#linearGradient3757"
       id="linearGradient3763"
       x1="258.38568"
       y1="480.84665"
       x2="258.38568"
       y2="508.27884"
       gradientUnits="userSpaceOnUse" />
    <linearGradient
       inkscape:collect="always"
       xlink:href="#linearGradient3757"
       id="linearGradient3769"
       gradientUnits="userSpaceOnUse"
       x1="258.38568"
       y1="480.84665"
       x2="258.38568"
       y2="508.27884" />
    <filter
       inkscape:collect="always"
       id="filter3815"
       color-interpolation-filters="sRGB">
      <feGaussianBlur
         inkscape:collect="always"
         stdDeviation="0.35704713"
         id="feGaussianBlur3817" />
    </filter>
    <linearGradient
       inkscape:collect="always"
       xlink:href="#linearGradient3757"
       id="linearGradient3827"
       gradientUnits="userSpaceOnUse"
       x1="258.38568"
       y1="480.84665"
       x2="258.38568"
       y2="508.27884" />
    <linearGradient
       inkscape:collect="always"
       xlink:href="#linearGradient3757"
       id="linearGradient3843"
       gradientUnits="userSpaceOnUse"
       x1="258.38568"
       y1="480.84665"
       x2="258.38568"
       y2="508.27884" />
    <linearGradient
       inkscape:collect="always"
       xlink:href="#linearGradient3757"
       id="linearGradient3848"
       gradientUnits="userSpaceOnUse"
       x1="258.38568"
       y1="480.84665"
       x2="258.38568"
       y2="508.27884"
       gradientTransform="matrix(8.6642202,0,0,8.6642202,-2108.2034,-3360.5603)" />
    <linearGradient
       inkscape:collect="always"
       xlink:href="#linearGradient3757"
       id="linearGradient3874"
       gradientUnits="userSpaceOnUse"
       gradientTransform="matrix(8.6642202,0,0,8.6642202,-2108.2034,-4156.9224)"
       x1="258.38568"
       y1="480.84665"
       x2="258.38568"
       y2="508.27884" />
    <filter
       inkscape:collect="always"
       id="filter3891">
      <feGaussianBlur
         inkscape:collect="always"
         stdDeviation="3.0880424"
         id="feGaussianBlur3893" />
    </filter>
  </defs>
  <sodipodi:namedview
     id="base"
     pagecolor="#ffffff"
     bordercolor="#666666"
     borderopacity="1.0"
     inkscape:pageopacity="0"
     inkscape:pageshadow="2"
     inkscape:zoom="0.98994949"
     inkscape:cx="160.70221"
     inkscape:cy="99.737204"
     inkscape:document-units="px"
     inkscape:current-layer="layer1"
     showgrid="false"
     inkscape:window-width="1920"
     inkscape:window-height="1018"
     inkscape:window-x="1912"
     inkscape:window-y="-8"
     inkscape:window-maximized="1" />
  <metadata
     id="metadata7">
    <rdf:RDF>
      <cc:Work
         rdf:about="">
        <dc:format>image/svg+xml</dc:format>
        <dc:type
           rdf:resource="http://purl.org/dc/dcmitype/StillImage" />
        <dc:title></dc:title>
      </cc:Work>
    </rdf:RDF>
  </metadata>
  <g
     inkscape:label="Layer 1"
     inkscape:groupmode="layer"
     id="layer1"
     transform="translate(0,-796.36215)">
    <path
       sodipodi:type="inkscape:offset"
       inkscape:radius="2.2106104"
       inkscape:original="M 144.28125 804.46875 C 116.64266 804.89498 95.071197 811.58586 79.5625 824.53125 C 64.053722 837.47707 56.166155 854.1155 55.90625 874.46875 C 56.166162 891.34947 62.070468 905.43873 73.59375 916.6875 C 85.116964 927.93652 100.70741 936.95115 120.375 943.78125 C 134.28802 948.4744 144.34116 953.29711 150.5 958.25 C 156.65862 963.20306 159.65387 969.25607 159.53125 976.375 C 159.50224 984.10056 156.36067 990.23028 150.09375 994.75 C 143.82661 999.26982 134.62729 1001.5552 122.46875 1001.6562 C 111.03928 1001.5047 100.19719 1000.0059 89.9375 997.125 C 79.677706 994.24423 71.003561 990.91559 63.90625 987.125 L 53.15625 1030.4375 C 60.008097 1034.2281 69.353741 1037.5567 81.1875 1040.4375 C 93.021175 1043.3183 105.73381 1044.8484 119.34375 1045 C 151.30698 1044.4296 174.97204 1037.2519 190.34375 1023.4688 C 205.71516 1009.6856 213.34368 992.71382 213.25 972.5625 C 213.31481 956.20907 208.41776 942.37885 198.5625 931.09375 C 188.70693 919.80887 173.52421 910.42249 152.96875 902.90625 C 137.8209 897.46245 126.79176 892.41433 119.875 887.75 C 112.95808 883.08598 109.52384 877.14568 109.625 869.96875 C 109.61049 863.87516 112.41395 858.64237 118.03125 854.28125 C 123.6484 849.92051 132.17147 847.63985 143.59375 847.4375 C 154.90751 847.6182 164.69925 848.92284 172.9375 851.3125 C 181.17549 853.70254 187.56897 856.09827 192.125 858.53125 L 203.90625 816.25 C 197.02535 812.87844 188.68933 810.10861 178.90625 807.90625 C 169.12289 805.70436 157.57331 804.54841 144.28125 804.46875 z "
       style="font-size:346.56881714px;font-style:normal;font-variant:normal;font-weight:bold;font-stretch:normal;text-align:start;line-height:125%;letter-spacing:0px;word-spacing:0px;writing-mode:lr-tb;text-anchor:start;fill:#22280b;fill-opacity:1;stroke:none;filter:url(#filter3891);font-family:Myriad Pro;-inkscape-font-specification:Myriad Pro Bold"
       id="path3881"
       d="m 144.25,802.25 c -27.9775,0.43146 -50.098556,7.24227 -66.09375,20.59375 C 62.215203,836.1504 53.9545,853.52865 53.6875,874.4375 a 2.2108315,2.2108315 0 0 0 0,0.0625 c 0.267554,17.37707 6.461567,32.15162 18.375,43.78125 11.813973,11.53286 27.69873,20.68467 47.59375,27.59375 13.78401,4.64963 23.67928,9.43791 29.46875,14.09375 5.74599,4.6212 8.29907,9.89744 8.1875,16.375 a 2.2108315,2.2108315 0 0 0 0,0.0312 c -0.0268,7.13067 -2.7179,12.42369 -8.5,16.59375 -5.71078,4.11858 -14.45563,6.36209 -26.3125,6.46875 -0.021,-2.8e-4 -0.0415,2.9e-4 -0.0625,0 C 111.20602,999.28365 100.574,997.81998 90.53125,995 80.38594,992.15138 71.848961,988.87883 64.9375,985.1875 A 2.2108315,2.2108315 0 0 0 61.75,986.59375 L 51,1029.9062 a 2.2108315,2.2108315 0 0 0 1.09375,2.4688 c 7.117229,3.9374 16.608396,7.3087 28.5625,10.2188 12.012414,2.9243 24.89599,4.4717 38.65625,4.625 a 2.2108315,2.2108315 0 0 0 0.0625,0 c 32.27455,-0.576 56.51018,-7.8125 72.4375,-22.0938 15.77229,-14.1427 23.75255,-31.84753 23.65625,-52.5625 0.0666,-16.79967 -5.04479,-31.25168 -15.25,-42.9375 -10.19599,-11.67466 -25.71678,-21.18173 -46.5,-28.78125 a 2.2108315,2.2108315 0 0 0 0,-0.0312 C 138.65884,895.4003 127.75161,890.37492 121.125,885.90625 114.64825,881.53904 111.75277,876.45475 111.84375,870 a 2.2108315,2.2108315 0 0 0 0,-0.0312 c -0.0129,-5.41256 2.30912,-9.88318 7.53125,-13.9375 5.04635,-3.91761 13.07454,-6.1697 24.1875,-6.375 0.0223,3.6e-4 0.0402,-3.7e-4 0.0625,0 11.13571,0.18239 20.70858,1.46681 28.6875,3.78125 8.15228,2.36517 14.45134,4.71902 18.78125,7.03125 A 2.2108315,2.2108315 0 0 0 194.25,859.125 l 11.78125,-42.28125 A 2.2108315,2.2108315 0 0 0 204.875,814.25 c -7.08481,-3.47147 -15.56073,-6.26951 -25.46875,-8.5 -9.98526,-2.24733 -21.71246,-3.41962 -35.125,-3.5 a 2.2108315,2.2108315 0 0 0 -0.0312,0 z" />
    <text
       sodipodi:linespacing="125%"
       id="text3851"
       y="1041.5261"
       x="39.285503"
       style="font-size:346.56881714px;font-style:normal;font-variant:normal;font-weight:bold;font-stretch:normal;text-align:start;line-height:125%;letter-spacing:0px;word-spacing:0px;writing-mode:lr-tb;text-anchor:start;fill:url(#linearGradient3848);fill-opacity:1;stroke:none;font-family:Myriad Pro;-inkscape-font-specification:Myriad Pro Bold"
       xml:space="preserve"><tspan
         style="fill:url(#linearGradient3848);fill-opacity:1"
         y="1041.5261"
         x="39.285503"
         id="tspan3853"
         sodipodi:role="line">S</tspan></text>
    <g
       style="font-size:346.56881714px;font-style:normal;font-variant:normal;font-weight:bold;font-stretch:normal;text-align:start;line-height:125%;letter-spacing:0px;word-spacing:0px;writing-mode:lr-tb;text-anchor:start;fill:url(#linearGradient3848);fill-opacity:1;stroke:none;font-family:Myriad Pro;-inkscape-font-specification:Myriad Pro Bold"
       id="text2985">
      <path
         style="fill:#aad400"
         d="M 144.28125 8.125 C 116.64266 8.55123 95.071197 15.21086 79.5625 28.15625 C 64.053722 41.10207 56.166155 57.77175 55.90625 78.125 C 56.111945 91.484439 59.86487 103.07421 67.125 112.90625 C 84.157724 120.67454 105.2072 125.25 128 125.25 C 145.7414 125.25 162.44103 122.4591 177 117.5625 C 170.0262 113.52488 162.01481 109.839 152.96875 106.53125 C 137.8209 101.08745 126.79176 96.03933 119.875 91.375 C 112.95808 86.71098 109.52384 80.80193 109.625 73.625 C 109.6105 67.53141 112.41395 62.29862 118.03125 57.9375 C 123.6484 53.57676 132.17148 51.29611 143.59375 51.09375 C 154.90751 51.27445 164.69924 52.54784 172.9375 54.9375 C 181.17548 57.32754 187.56898 59.75452 192.125 62.1875 L 203.90625 19.90625 C 197.02535 16.5347 188.68933 13.73361 178.90625 11.53125 C 169.12289 9.32936 157.57331 8.20466 144.28125 8.125 z "
         transform="translate(0,796.36215)"
         id="path3868" />
    </g>
  </g>
</svg>
